<svg xmlns="http://www.w3.org/2000/svg" version="1.1" xmlns:xlink="http://www.w3.org/1999/xlink" xmlns:svgjs="http://svgjs.dev/svgjs" width="500" height="250" preserveAspectRatio="none" viewBox="0 0 500 250">
    <g mask="url(&quot;#SvgjsMask2651&quot;)" fill="none">
        <rect width="96" height="96" clip-path="url(&quot;#SvgjsClipPath2652&quot;)" x="174.71" y="160.24" fill="url(&quot;#SvgjsPattern2653&quot;)" transform="rotate(233.55, 222.71, 208.24)"></rect>
        <rect width="123.4" height="123.4" clip-path="url(&quot;#SvgjsClipPath2654&quot;)" x="281.23" y="100.53" fill="url(&quot;#SvgjsPattern2655&quot;)" transform="rotate(10.55, 342.93, 162.23)"></rect>
        <path d="M142.04 25.81L152.9 19.03 161.9 28.15 172.76 21.37 181.76 30.49 192.63 23.71 201.62 32.82M141.1 33.76L151.97 26.98 160.96 36.09 171.83 29.32 180.83 38.43 191.69 31.65 200.69 40.77" stroke="#037b0b" stroke-width="1.13" stroke-dasharray="3, 2"></path>
        <rect width="120" height="120" clip-path="url(&quot;#SvgjsClipPath2656&quot;)" x="106.87" y="56.17" fill="url(&quot;#SvgjsPattern2657&quot;)" transform="rotate(113.81, 166.87, 116.17)"></rect>
        <rect width="60" height="60" clip-path="url(&quot;#SvgjsClipPath2658&quot;)" x="259.64" y="150.61" fill="url(&quot;#SvgjsPattern2659&quot;)" transform="rotate(37.96, 289.64, 180.61)"></rect>
        <rect width="93.24" height="93.24" clip-path="url(&quot;#SvgjsClipPath2660&quot;)" x="376.64" y="187.63" fill="url(&quot;#SvgjsPattern2661&quot;)" transform="rotate(103.68, 423.26, 234.25)"></rect>
        <rect width="137.8" height="137.8" clip-path="url(&quot;#SvgjsClipPath2662&quot;)" x="414.93" y="-12.05" fill="url(&quot;#SvgjsPattern2663&quot;)" transform="rotate(110.21, 483.83, 56.85)"></rect>
        <circle r="41.5995776285325" cx="58.52" cy="160.15" fill="#d3b714"></circle>
        <path d="M418.68 139.66L405.88 139.97 402.77 127.55 389.97 127.86 386.85 115.44 374.05 115.75 370.94 103.33" stroke="#037b0b" stroke-width="2.57"></path>
    </g>
    <defs>
        <mask id="SvgjsMask2651">
            <rect width="500" height="250" fill="#ffffff"></rect>
        </mask>
        <pattern x="0" y="0" width="9.6" height="9.6" patternUnits="userSpaceOnUse" id="SvgjsPattern2653">
            <path d="M4.8 1L4.8 8.6M1 4.8L8.6 4.8" stroke="#037b0b" fill="none" stroke-width="2"></path>
        </pattern>
        <clipPath id="SvgjsClipPath2652">
            <circle r="24" cx="222.71" cy="208.24"></circle>
        </clipPath>
        <pattern x="0" y="0" width="12.34" height="12.34" patternUnits="userSpaceOnUse" id="SvgjsPattern2655">
            <path d="M6.17 1L6.17 11.34M1 6.17L11.34 6.17" stroke="#037b0b" fill="none" stroke-width="4.12"></path>
        </pattern>
        <clipPath id="SvgjsClipPath2654">
            <circle r="30.85" cx="342.93" cy="162.23"></circle>
        </clipPath>
        <pattern x="0" y="0" width="120" height="6" patternUnits="userSpaceOnUse" id="SvgjsPattern2657">
            <rect width="120" height="3" x="0" y="0" fill="#e73635"></rect>
            <rect width="120" height="3" x="0" y="3" fill="rgba(0, 0, 0, 0)"></rect>
        </pattern>
        <clipPath id="SvgjsClipPath2656">
            <circle r="30" cx="166.87" cy="116.17"></circle>
        </clipPath>
        <pattern x="0" y="0" width="6" height="6" patternUnits="userSpaceOnUse" id="SvgjsPattern2659">
            <path d="M0 6L3 0L6 6" stroke="#d3b714" fill="none"></path>
        </pattern>
        <clipPath id="SvgjsClipPath2658">
            <circle r="15" cx="289.64" cy="180.61"></circle>
        </clipPath>
        <pattern x="0" y="0" width="6.66" height="6.66" patternUnits="userSpaceOnUse" id="SvgjsPattern2661">
            <path d="M3.33 1L3.33 5.66M1 3.33L5.66 3.33" stroke="#037b0b" fill="none" stroke-width="1"></path>
        </pattern>
        <clipPath id="SvgjsClipPath2660">
            <circle r="23.31" cx="423.26" cy="234.25"></circle>
        </clipPath>
        <pattern x="0" y="0" width="137.8" height="13.78" patternUnits="userSpaceOnUse" id="SvgjsPattern2663">
            <rect width="137.8" height="6.89" x="0" y="0" fill="#e73635"></rect>
            <rect width="137.8" height="6.89" x="0" y="6.89" fill="rgba(0, 0, 0, 0)"></rect>
        </pattern>
        <clipPath id="SvgjsClipPath2662">
            <circle r="34.45" cx="483.83" cy="56.85"></circle>
        </clipPath>
    </defs>
</svg>